<?xml version="1.0" encoding="UTF-8" standalone="no"?>
<!DOCTYPE svg PUBLIC "-//W3C//DTD SVG 1.1//EN"
 "http://www.w3.org/Graphics/SVG/1.1/DTD/svg11.dtd">
<!-- Generated by graphviz version 2.40.1 (20161225.0304)
 -->
<!-- Title: %3 Pages: 1 -->
<svg width="1580pt" height="479pt"
 viewBox="0.00 0.00 1579.99 479.00" xmlns="http://www.w3.org/2000/svg" xmlns:xlink="http://www.w3.org/1999/xlink">
<g id="graph0" class="graph" transform="scale(1 1) rotate(0) translate(4 475)">
<title>%3</title>
<polygon fill="#ffffff" stroke="transparent" points="-4,4 -4,-475 1575.9873,-475 1575.9873,4 -4,4"/>
<!-- 0 -->
<g id="node1" class="node">
<title>0</title>
<ellipse fill="none" stroke="#000000" cx="864.4937" cy="-453" rx="96.6831" ry="18"/>
<text text-anchor="middle" x="864.4937" y="-449.3" font-family="Times,serif" font-size="14.00" fill="#000000">PT08.S5(O3)&lt;1201.875</text>
</g>
<!-- 1 -->
<g id="node2" class="node">
<title>1</title>
<ellipse fill="none" stroke="#000000" cx="679.4937" cy="-366" rx="96.6831" ry="18"/>
<text text-anchor="middle" x="679.4937" y="-362.3" font-family="Times,serif" font-size="14.00" fill="#000000">C6H6(GT)&lt;4.85081005</text>
</g>
<!-- 0&#45;&gt;1 -->
<g id="edge1" class="edge">
<title>0&#45;&gt;1</title>
<path fill="none" stroke="#0000ff" d="M828.8238,-436.2255C799.1033,-422.2488 756.6031,-402.2623 724.5376,-387.1828"/>
<polygon fill="#0000ff" stroke="#0000ff" points="725.9079,-383.9596 715.3692,-382.8712 722.929,-390.2941 725.9079,-383.9596"/>
<text text-anchor="middle" x="817.9937" y="-405.8" font-family="Times,serif" font-size="14.00" fill="#000000">yes, missing</text>
</g>
<!-- 2 -->
<g id="node3" class="node">
<title>2</title>
<ellipse fill="none" stroke="#000000" cx="1037.4937" cy="-366" rx="96.6831" ry="18"/>
<text text-anchor="middle" x="1037.4937" y="-362.3" font-family="Times,serif" font-size="14.00" fill="#000000">PT08.S5(O3)&lt;1490.875</text>
</g>
<!-- 0&#45;&gt;2 -->
<g id="edge2" class="edge">
<title>0&#45;&gt;2</title>
<path fill="none" stroke="#ff0000" d="M898.2605,-436.019C925.7667,-422.1864 964.7768,-402.5686 994.5105,-387.6158"/>
<polygon fill="#ff0000" stroke="#ff0000" points="996.4506,-390.5579 1003.812,-382.9382 993.3056,-384.3041 996.4506,-390.5579"/>
<text text-anchor="middle" x="968.4937" y="-405.8" font-family="Times,serif" font-size="14.00" fill="#000000">no</text>
</g>
<!-- 3 -->
<g id="node4" class="node">
<title>3</title>
<ellipse fill="none" stroke="#000000" cx="253.4937" cy="-279" rx="98.5829" ry="18"/>
<text text-anchor="middle" x="253.4937" y="-275.3" font-family="Times,serif" font-size="14.00" fill="#000000">PT08.S3(NOx)&lt;968.125</text>
</g>
<!-- 1&#45;&gt;3 -->
<g id="edge3" class="edge">
<title>1&#45;&gt;3</title>
<path fill="none" stroke="#0000ff" d="M613.8647,-352.5969C537.2068,-336.9414 410.5978,-311.0846 329.673,-294.5577"/>
<polygon fill="#0000ff" stroke="#0000ff" points="330.0459,-291.0617 319.5477,-292.4899 328.6451,-297.9202 330.0459,-291.0617"/>
<text text-anchor="middle" x="526.9937" y="-318.8" font-family="Times,serif" font-size="14.00" fill="#000000">yes, missing</text>
</g>
<!-- 4 -->
<g id="node5" class="node">
<title>4</title>
<ellipse fill="none" stroke="#000000" cx="679.4937" cy="-279" rx="92.0841" ry="18"/>
<text text-anchor="middle" x="679.4937" y="-275.3" font-family="Times,serif" font-size="14.00" fill="#000000">PT08.S5(O3)&lt;953.875</text>
</g>
<!-- 1&#45;&gt;4 -->
<g id="edge4" class="edge">
<title>1&#45;&gt;4</title>
<path fill="none" stroke="#ff0000" d="M679.4937,-347.9735C679.4937,-336.1918 679.4937,-320.5607 679.4937,-307.1581"/>
<polygon fill="#ff0000" stroke="#ff0000" points="682.9938,-307.0033 679.4937,-297.0034 675.9938,-307.0034 682.9938,-307.0033"/>
<text text-anchor="middle" x="686.4937" y="-318.8" font-family="Times,serif" font-size="14.00" fill="#000000">no</text>
</g>
<!-- 5 -->
<g id="node18" class="node">
<title>5</title>
<ellipse fill="none" stroke="#000000" cx="1037.4937" cy="-279" rx="98.5829" ry="18"/>
<text text-anchor="middle" x="1037.4937" y="-275.3" font-family="Times,serif" font-size="14.00" fill="#000000">PT08.S4(NO2)&lt;1298.75</text>
</g>
<!-- 2&#45;&gt;5 -->
<g id="edge17" class="edge">
<title>2&#45;&gt;5</title>
<path fill="none" stroke="#0000ff" d="M1037.4937,-347.9735C1037.4937,-336.1918 1037.4937,-320.5607 1037.4937,-307.1581"/>
<polygon fill="#0000ff" stroke="#0000ff" points="1040.9938,-307.0033 1037.4937,-297.0034 1033.9938,-307.0034 1040.9938,-307.0033"/>
<text text-anchor="middle" x="1071.9937" y="-318.8" font-family="Times,serif" font-size="14.00" fill="#000000">yes, missing</text>
</g>
<!-- 6 -->
<g id="node19" class="node">
<title>6</title>
<ellipse fill="none" stroke="#000000" cx="1339.4937" cy="-279" rx="112.3801" ry="18"/>
<text text-anchor="middle" x="1339.4937" y="-275.3" font-family="Times,serif" font-size="14.00" fill="#000000">PT08.S2(NMHC)&lt;1398.625</text>
</g>
<!-- 2&#45;&gt;6 -->
<g id="edge18" class="edge">
<title>2&#45;&gt;6</title>
<path fill="none" stroke="#ff0000" d="M1090.098,-350.8458C1141.5117,-336.0345 1219.8815,-313.4578 1275.0193,-297.5737"/>
<polygon fill="#ff0000" stroke="#ff0000" points="1276.0485,-300.9197 1284.6889,-294.7881 1274.1107,-294.1932 1276.0485,-300.9197"/>
<text text-anchor="middle" x="1214.4937" y="-318.8" font-family="Times,serif" font-size="14.00" fill="#000000">no</text>
</g>
<!-- 7 -->
<g id="node6" class="node">
<title>7</title>
<ellipse fill="none" stroke="#000000" cx="71.4937" cy="-192" rx="71.4873" ry="18"/>
<text text-anchor="middle" x="71.4937" y="-188.3" font-family="Times,serif" font-size="14.00" fill="#000000">leaf=109.381729</text>
</g>
<!-- 3&#45;&gt;7 -->
<g id="edge5" class="edge">
<title>3&#45;&gt;7</title>
<path fill="none" stroke="#0000ff" d="M217.9702,-262.019C188.3453,-247.8576 146.0358,-227.6328 114.4994,-212.5577"/>
<polygon fill="#0000ff" stroke="#0000ff" points="115.6157,-209.212 105.084,-208.0569 112.5967,-215.5276 115.6157,-209.212"/>
<text text-anchor="middle" x="207.9937" y="-231.8" font-family="Times,serif" font-size="14.00" fill="#000000">yes, missing</text>
</g>
<!-- 8 -->
<g id="node7" class="node">
<title>8</title>
<ellipse fill="none" stroke="#000000" cx="253.4937" cy="-192" rx="92.0841" ry="18"/>
<text text-anchor="middle" x="253.4937" y="-188.3" font-family="Times,serif" font-size="14.00" fill="#000000">PT08.S5(O3)&lt;413.875</text>
</g>
<!-- 3&#45;&gt;8 -->
<g id="edge6" class="edge">
<title>3&#45;&gt;8</title>
<path fill="none" stroke="#ff0000" d="M253.4937,-260.9735C253.4937,-249.1918 253.4937,-233.5607 253.4937,-220.1581"/>
<polygon fill="#ff0000" stroke="#ff0000" points="256.9938,-220.0033 253.4937,-210.0034 249.9938,-220.0034 256.9938,-220.0033"/>
<text text-anchor="middle" x="260.4937" y="-231.8" font-family="Times,serif" font-size="14.00" fill="#000000">no</text>
</g>
<!-- 9 -->
<g id="node10" class="node">
<title>9</title>
<ellipse fill="none" stroke="#000000" cx="597.4937" cy="-192" rx="87.9851" ry="18"/>
<text text-anchor="middle" x="597.4937" y="-188.3" font-family="Times,serif" font-size="14.00" fill="#000000">CO(GT)&lt;1.54999995</text>
</g>
<!-- 4&#45;&gt;9 -->
<g id="edge9" class="edge">
<title>4&#45;&gt;9</title>
<path fill="none" stroke="#0000ff" d="M662.5032,-260.9735C650.5498,-248.2912 634.3924,-231.1486 621.1761,-217.1265"/>
<polygon fill="#0000ff" stroke="#0000ff" points="623.5877,-214.5822 614.1818,-209.7057 618.4937,-219.3834 623.5877,-214.5822"/>
<text text-anchor="middle" x="677.9937" y="-231.8" font-family="Times,serif" font-size="14.00" fill="#000000">yes, missing</text>
</g>
<!-- 10 -->
<g id="node11" class="node">
<title>10</title>
<ellipse fill="none" stroke="#000000" cx="790.4937" cy="-192" rx="87.1846" ry="18"/>
<text text-anchor="middle" x="790.4937" y="-188.3" font-family="Times,serif" font-size="14.00" fill="#000000">PT08.S4(NO2)&lt;1154</text>
</g>
<!-- 4&#45;&gt;10 -->
<g id="edge10" class="edge">
<title>4&#45;&gt;10</title>
<path fill="none" stroke="#ff0000" d="M701.9562,-261.3943C718.6565,-248.3048 741.6316,-230.2973 759.9924,-215.9064"/>
<polygon fill="#ff0000" stroke="#ff0000" points="762.3531,-218.5031 768.0646,-209.5796 758.0349,-212.9937 762.3531,-218.5031"/>
<text text-anchor="middle" x="749.4937" y="-231.8" font-family="Times,serif" font-size="14.00" fill="#000000">no</text>
</g>
<!-- 15 -->
<g id="node8" class="node">
<title>15</title>
<ellipse fill="none" stroke="#000000" cx="92.4937" cy="-105" rx="71.4873" ry="18"/>
<text text-anchor="middle" x="92.4937" y="-101.3" font-family="Times,serif" font-size="14.00" fill="#000000">leaf=90.3535385</text>
</g>
<!-- 8&#45;&gt;15 -->
<g id="edge7" class="edge">
<title>8&#45;&gt;15</title>
<path fill="none" stroke="#0000ff" d="M218.3471,-175.2592C206.2604,-169.3461 192.7014,-162.5381 180.4937,-156 163.4475,-146.8706 144.8824,-136.2195 129.2169,-127.0192"/>
<polygon fill="#0000ff" stroke="#0000ff" points="130.7526,-123.8614 120.3618,-121.7922 127.1944,-129.8896 130.7526,-123.8614"/>
<text text-anchor="middle" x="214.9937" y="-144.8" font-family="Times,serif" font-size="14.00" fill="#000000">yes, missing</text>
</g>
<!-- 16 -->
<g id="node9" class="node">
<title>16</title>
<ellipse fill="none" stroke="#000000" cx="253.4937" cy="-105" rx="71.4873" ry="18"/>
<text text-anchor="middle" x="253.4937" y="-101.3" font-family="Times,serif" font-size="14.00" fill="#000000">leaf=99.3928375</text>
</g>
<!-- 8&#45;&gt;16 -->
<g id="edge8" class="edge">
<title>8&#45;&gt;16</title>
<path fill="none" stroke="#ff0000" d="M253.4937,-173.9735C253.4937,-162.1918 253.4937,-146.5607 253.4937,-133.1581"/>
<polygon fill="#ff0000" stroke="#ff0000" points="256.9938,-133.0033 253.4937,-123.0034 249.9938,-133.0034 256.9938,-133.0033"/>
<text text-anchor="middle" x="260.4937" y="-144.8" font-family="Times,serif" font-size="14.00" fill="#000000">no</text>
</g>
<!-- 17 -->
<g id="node12" class="node">
<title>17</title>
<ellipse fill="none" stroke="#000000" cx="441.4937" cy="-105" rx="98.5829" ry="18"/>
<text text-anchor="middle" x="441.4937" y="-101.3" font-family="Times,serif" font-size="14.00" fill="#000000">PT08.S3(NOx)&lt;832.875</text>
</g>
<!-- 9&#45;&gt;17 -->
<g id="edge11" class="edge">
<title>9&#45;&gt;17</title>
<path fill="none" stroke="#0000ff" d="M567.045,-175.019C542.6151,-161.3946 508.1216,-142.1579 481.4695,-127.2942"/>
<polygon fill="#0000ff" stroke="#0000ff" points="482.8371,-124.0495 472.3987,-122.2355 479.4276,-130.163 482.8371,-124.0495"/>
<text text-anchor="middle" x="563.9937" y="-144.8" font-family="Times,serif" font-size="14.00" fill="#000000">yes, missing</text>
</g>
<!-- 18 -->
<g id="node13" class="node">
<title>18</title>
<ellipse fill="none" stroke="#000000" cx="629.4937" cy="-105" rx="71.4873" ry="18"/>
<text text-anchor="middle" x="629.4937" y="-101.3" font-family="Times,serif" font-size="14.00" fill="#000000">leaf=120.397758</text>
</g>
<!-- 9&#45;&gt;18 -->
<g id="edge12" class="edge">
<title>9&#45;&gt;18</title>
<path fill="none" stroke="#ff0000" d="M604.1241,-173.9735C608.5005,-162.0751 614.321,-146.2508 619.2828,-132.7606"/>
<polygon fill="#ff0000" stroke="#ff0000" points="622.7045,-133.5969 622.8717,-123.0034 616.1348,-131.1804 622.7045,-133.5969"/>
<text text-anchor="middle" x="622.4937" y="-144.8" font-family="Times,serif" font-size="14.00" fill="#000000">no</text>
</g>
<!-- 19 -->
<g id="node16" class="node">
<title>19</title>
<ellipse fill="none" stroke="#000000" cx="790.4937" cy="-105" rx="71.4873" ry="18"/>
<text text-anchor="middle" x="790.4937" y="-101.3" font-family="Times,serif" font-size="14.00" fill="#000000">leaf=117.573357</text>
</g>
<!-- 10&#45;&gt;19 -->
<g id="edge15" class="edge">
<title>10&#45;&gt;19</title>
<path fill="none" stroke="#0000ff" d="M790.4937,-173.9735C790.4937,-162.1918 790.4937,-146.5607 790.4937,-133.1581"/>
<polygon fill="#0000ff" stroke="#0000ff" points="793.9938,-133.0033 790.4937,-123.0034 786.9938,-133.0034 793.9938,-133.0033"/>
<text text-anchor="middle" x="824.9937" y="-144.8" font-family="Times,serif" font-size="14.00" fill="#000000">yes, missing</text>
</g>
<!-- 20 -->
<g id="node17" class="node">
<title>20</title>
<ellipse fill="none" stroke="#000000" cx="942.4937" cy="-105" rx="62.2891" ry="18"/>
<text text-anchor="middle" x="942.4937" y="-101.3" font-family="Times,serif" font-size="14.00" fill="#000000">leaf=129.3423</text>
</g>
<!-- 10&#45;&gt;20 -->
<g id="edge16" class="edge">
<title>10&#45;&gt;20</title>
<path fill="none" stroke="#ff0000" d="M826.1945,-175.4114C838.2008,-169.5652 851.5693,-162.7596 863.4937,-156 879.0181,-147.1997 895.6887,-136.616 909.6961,-127.3765"/>
<polygon fill="#ff0000" stroke="#ff0000" points="911.6526,-130.2787 918.0394,-121.8253 907.775,-124.4508 911.6526,-130.2787"/>
<text text-anchor="middle" x="895.4937" y="-144.8" font-family="Times,serif" font-size="14.00" fill="#000000">no</text>
</g>
<!-- 23 -->
<g id="node14" class="node">
<title>23</title>
<ellipse fill="none" stroke="#000000" cx="363.4937" cy="-18" rx="71.4873" ry="18"/>
<text text-anchor="middle" x="363.4937" y="-14.3" font-family="Times,serif" font-size="14.00" fill="#000000">leaf=117.768066</text>
</g>
<!-- 17&#45;&gt;23 -->
<g id="edge13" class="edge">
<title>17&#45;&gt;23</title>
<path fill="none" stroke="#0000ff" d="M425.332,-86.9735C414.0669,-74.4087 398.8767,-57.4657 386.3708,-43.5168"/>
<polygon fill="#0000ff" stroke="#0000ff" points="388.6492,-40.815 379.3677,-35.7057 383.4372,-45.4878 388.6492,-40.815"/>
<text text-anchor="middle" x="441.9937" y="-57.8" font-family="Times,serif" font-size="14.00" fill="#000000">yes, missing</text>
</g>
<!-- 24 -->
<g id="node15" class="node">
<title>24</title>
<ellipse fill="none" stroke="#000000" cx="519.4937" cy="-18" rx="66.8882" ry="18"/>
<text text-anchor="middle" x="519.4937" y="-14.3" font-family="Times,serif" font-size="14.00" fill="#000000">leaf=109.15657</text>
</g>
<!-- 17&#45;&gt;24 -->
<g id="edge14" class="edge">
<title>17&#45;&gt;24</title>
<path fill="none" stroke="#ff0000" d="M461.9724,-87.3203C468.1401,-81.6768 474.7831,-75.2653 480.4937,-69 487.5153,-61.2963 494.6112,-52.4154 500.7901,-44.2453"/>
<polygon fill="#ff0000" stroke="#ff0000" points="503.7094,-46.1845 506.8557,-36.0676 498.0871,-42.0143 503.7094,-46.1845"/>
<text text-anchor="middle" x="500.4937" y="-57.8" font-family="Times,serif" font-size="14.00" fill="#000000">no</text>
</g>
<!-- 11 -->
<g id="node20" class="node">
<title>11</title>
<ellipse fill="none" stroke="#000000" cx="967.4937" cy="-192" rx="71.4873" ry="18"/>
<text text-anchor="middle" x="967.4937" y="-188.3" font-family="Times,serif" font-size="14.00" fill="#000000">leaf=130.276337</text>
</g>
<!-- 5&#45;&gt;11 -->
<g id="edge19" class="edge">
<title>5&#45;&gt;11</title>
<path fill="none" stroke="#0000ff" d="M1022.9896,-260.9735C1012.8799,-248.4087 999.2477,-231.4657 988.0244,-217.5168"/>
<polygon fill="#0000ff" stroke="#0000ff" points="990.7353,-215.3028 981.7396,-209.7057 985.2815,-219.691 990.7353,-215.3028"/>
<text text-anchor="middle" x="1041.9937" y="-231.8" font-family="Times,serif" font-size="14.00" fill="#000000">yes, missing</text>
</g>
<!-- 12 -->
<g id="node21" class="node">
<title>12</title>
<ellipse fill="none" stroke="#000000" cx="1153.4937" cy="-192" rx="96.6831" ry="18"/>
<text text-anchor="middle" x="1153.4937" y="-188.3" font-family="Times,serif" font-size="14.00" fill="#000000">PT08.S5(O3)&lt;1341.375</text>
</g>
<!-- 5&#45;&gt;12 -->
<g id="edge20" class="edge">
<title>5&#45;&gt;12</title>
<path fill="none" stroke="#ff0000" d="M1060.968,-261.3943C1078.4992,-248.2459 1102.647,-230.135 1121.8774,-215.7122"/>
<polygon fill="#ff0000" stroke="#ff0000" points="1124.1542,-218.3796 1130.0542,-209.5796 1119.9542,-212.7796 1124.1542,-218.3796"/>
<text text-anchor="middle" x="1109.4937" y="-231.8" font-family="Times,serif" font-size="14.00" fill="#000000">no</text>
</g>
<!-- 13 -->
<g id="node24" class="node">
<title>13</title>
<ellipse fill="none" stroke="#000000" cx="1339.4937" cy="-192" rx="71.4873" ry="18"/>
<text text-anchor="middle" x="1339.4937" y="-188.3" font-family="Times,serif" font-size="14.00" fill="#000000">leaf=160.055649</text>
</g>
<!-- 6&#45;&gt;13 -->
<g id="edge23" class="edge">
<title>6&#45;&gt;13</title>
<path fill="none" stroke="#0000ff" d="M1339.4937,-260.9735C1339.4937,-249.1918 1339.4937,-233.5607 1339.4937,-220.1581"/>
<polygon fill="#0000ff" stroke="#0000ff" points="1342.9938,-220.0033 1339.4937,-210.0034 1335.9938,-220.0034 1342.9938,-220.0033"/>
<text text-anchor="middle" x="1373.9937" y="-231.8" font-family="Times,serif" font-size="14.00" fill="#000000">yes, missing</text>
</g>
<!-- 14 -->
<g id="node25" class="node">
<title>14</title>
<ellipse fill="none" stroke="#000000" cx="1500.4937" cy="-192" rx="71.4873" ry="18"/>
<text text-anchor="middle" x="1500.4937" y="-188.3" font-family="Times,serif" font-size="14.00" fill="#000000">leaf=178.003494</text>
</g>
<!-- 6&#45;&gt;14 -->
<g id="edge24" class="edge">
<title>6&#45;&gt;14</title>
<path fill="none" stroke="#ff0000" d="M1375.382,-261.8961C1387.2798,-256.0684 1400.5351,-249.4047 1412.4937,-243 1429.5398,-233.8706 1448.1049,-223.2195 1463.7704,-214.0192"/>
<polygon fill="#ff0000" stroke="#ff0000" points="1465.793,-216.8896 1472.6255,-208.7922 1462.2347,-210.8614 1465.793,-216.8896"/>
<text text-anchor="middle" x="1445.4937" y="-231.8" font-family="Times,serif" font-size="14.00" fill="#000000">no</text>
</g>
<!-- 21 -->
<g id="node22" class="node">
<title>21</title>
<ellipse fill="none" stroke="#000000" cx="1123.4937" cy="-105" rx="71.4873" ry="18"/>
<text text-anchor="middle" x="1123.4937" y="-101.3" font-family="Times,serif" font-size="14.00" fill="#000000">leaf=141.723679</text>
</g>
<!-- 12&#45;&gt;21 -->
<g id="edge21" class="edge">
<title>12&#45;&gt;21</title>
<path fill="none" stroke="#0000ff" d="M1147.2776,-173.9735C1143.1747,-162.0751 1137.7181,-146.2508 1133.0663,-132.7606"/>
<polygon fill="#0000ff" stroke="#0000ff" points="1136.2705,-131.3161 1129.7017,-123.0034 1129.6529,-133.5981 1136.2705,-131.3161"/>
<text text-anchor="middle" x="1174.9937" y="-144.8" font-family="Times,serif" font-size="14.00" fill="#000000">yes, missing</text>
</g>
<!-- 22 -->
<g id="node23" class="node">
<title>22</title>
<ellipse fill="none" stroke="#000000" cx="1284.4937" cy="-105" rx="71.4873" ry="18"/>
<text text-anchor="middle" x="1284.4937" y="-101.3" font-family="Times,serif" font-size="14.00" fill="#000000">leaf=152.526382</text>
</g>
<!-- 12&#45;&gt;22 -->
<g id="edge22" class="edge">
<title>12&#45;&gt;22</title>
<path fill="none" stroke="#ff0000" d="M1183.3966,-174.7167C1193.1024,-168.9327 1203.8511,-162.3405 1213.4937,-156 1226.7849,-147.2603 1241.0942,-137.1281 1253.36,-128.2086"/>
<polygon fill="#ff0000" stroke="#ff0000" points="1255.4856,-130.9902 1261.4876,-122.2594 1251.351,-125.3417 1255.4856,-130.9902"/>
<text text-anchor="middle" x="1242.4937" y="-144.8" font-family="Times,serif" font-size="14.00" fill="#000000">no</text>
</g>
</g>
</svg>