<?xml version="1.0" encoding="UTF-8" standalone="no"?>
<!DOCTYPE svg PUBLIC "-//W3C//DTD SVG 1.1//EN"
 "http://www.w3.org/Graphics/SVG/1.1/DTD/svg11.dtd">
<!-- Generated by graphviz version 2.40.1 (20161225.0304)
 -->
<!-- Title: %3 Pages: 1 -->
<svg width="148pt" height="116pt"
 viewBox="0.00 0.00 148.45 116.00" xmlns="http://www.w3.org/2000/svg" xmlns:xlink="http://www.w3.org/1999/xlink">
<g id="graph0" class="graph" transform="scale(1 1) rotate(0) translate(4 112)">
<title>%3</title>
<polygon fill="#ffffff" stroke="transparent" points="-4,4 -4,-112 144.4469,-112 144.4469,4 -4,4"/>
<!-- y -->
<g id="node1" class="node">
<title>y</title>
<ellipse fill="none" stroke="#000000" cx="27" cy="-18" rx="27" ry="18"/>
<text text-anchor="middle" x="27" y="-14.3" font-family="Times,serif" font-size="14.00" fill="#000000">y</text>
</g>
<!-- x_spur -->
<g id="node2" class="node">
<title>x_spur</title>
<ellipse fill="none" stroke="#000000" cx="106" cy="-18" rx="34.394" ry="18"/>
<text text-anchor="middle" x="106" y="-14.3" font-family="Times,serif" font-size="14.00" fill="#000000">x_spur</text>
</g>
<!-- x_real -->
<g id="node3" class="node">
<title>x_real</title>
<ellipse fill="none" stroke="#000000" cx="66" cy="-90" rx="32.4942" ry="18"/>
<text text-anchor="middle" x="66" y="-86.3" font-family="Times,serif" font-size="14.00" fill="#000000">x_real</text>
</g>
<!-- x_real&#45;&gt;y -->
<g id="edge2" class="edge">
<title>x_real&#45;&gt;y</title>
<path fill="none" stroke="#000000" d="M56.5592,-72.5708C51.9604,-64.0807 46.3336,-53.6929 41.2282,-44.2674"/>
<polygon fill="#000000" stroke="#000000" points="44.1943,-42.3946 36.3539,-35.2687 38.0392,-45.7286 44.1943,-42.3946"/>
</g>
<!-- x_real&#45;&gt;x_spur -->
<g id="edge1" class="edge">
<title>x_real&#45;&gt;x_spur</title>
<path fill="none" stroke="#000000" d="M75.6829,-72.5708C80.3649,-64.1431 86.0858,-53.8455 91.2914,-44.4755"/>
<polygon fill="#000000" stroke="#000000" points="94.4707,-45.9596 96.2676,-35.5182 88.3516,-42.5601 94.4707,-45.9596"/>
</g>
</g>
</svg>